<?xml version="1.0" encoding="UTF-8" standalone="no"?>
<svg
   xmlns:dc="http://purl.org/dc/elements/1.1/"
   xmlns:cc="http://creativecommons.org/ns#"
   xmlns:rdf="http://www.w3.org/1999/02/22-rdf-syntax-ns#"
   xmlns:svg="http://www.w3.org/2000/svg"
   xmlns="http://www.w3.org/2000/svg"
   xmlns:sodipodi="http://sodipodi.sourceforge.net/DTD/sodipodi-0.dtd"
   xmlns:inkscape="http://www.inkscape.org/namespaces/inkscape"
   inkscape:version="1.0 (4035a4fb49, 2020-05-01)"
   sodipodi:docname="close.svg"
   id="svg8"
   xml:space="preserve"
   enable-background="new 0 0 1000 1000"
   viewBox="0 0 1000 1000"
   y="0px"
   x="0px"
   version="1.1"><defs
   id="defs12" /><sodipodi:namedview
   inkscape:current-layer="svg8"
   inkscape:window-maximized="1"
   inkscape:window-y="0"
   inkscape:window-x="1920"
   inkscape:cy="500"
   inkscape:cx="500"
   inkscape:zoom="0.839"
   inkscape:pagecheckerboard="true"
   showgrid="false"
   id="namedview10"
   inkscape:window-height="1025"
   inkscape:window-width="1920"
   inkscape:pageshadow="2"
   inkscape:pageopacity="0"
   guidetolerance="10"
   gridtolerance="10"
   objecttolerance="10"
   borderopacity="1"
   bordercolor="#666666"
   pagecolor="#ffffff" />
<metadata
   id="metadata2"> Svg Vector Icons : http://www.onlinewebfonts.com/icon <rdf:RDF><cc:Work
     rdf:about=""><dc:format>image/svg+xml</dc:format><dc:type
       rdf:resource="http://purl.org/dc/dcmitype/StillImage" /><dc:title></dc:title></cc:Work></rdf:RDF></metadata>
<g
   inkscape:export-ydpi="4.6618247"
   inkscape:export-xdpi="4.6618247"
   style="fill:#ffffff"
   id="g6"><path
     style="fill:#ffffff"
     id="path4"
     d="M630.8,497.3l317.1-330.7c35.4-36.9,34.1-95.5-2.8-130.8c-36.8-35.4-95.4-34.1-130.8,2.8L497.2,369.2L189.3,73.9c-36.8-35.4-95.4-34.1-130.8,2.7l-0.1,0.1c-35.3,36.9-34,95.4,2.8,130.7l308,295.3L52.1,833.4c-35.4,36.9-34.1,95.5,2.8,130.8c36.9,35.4,95.5,34.1,130.8-2.7l317.1-330.7l308,295.2c36.8,35.4,95.3,34.1,130.6-2.6l0.3-0.3c35.2-36.9,33.9-95.3-2.9-130.6L630.8,497.3z" /></g>
</svg>
