<?xml version="1.0" encoding="UTF-8" standalone="no"?>
<svg
   xmlns:dc="http://purl.org/dc/elements/1.1/"
   xmlns:cc="http://creativecommons.org/ns#"
   xmlns:rdf="http://www.w3.org/1999/02/22-rdf-syntax-ns#"
   xmlns:svg="http://www.w3.org/2000/svg"
   xmlns="http://www.w3.org/2000/svg"
   xmlns:sodipodi="http://sodipodi.sourceforge.net/DTD/sodipodi-0.dtd"
   xmlns:inkscape="http://www.inkscape.org/namespaces/inkscape"
   height="24"
   width="24"
   version="1.1"
   id="svg24"
   sodipodi:docname="save_icon.svg"
   inkscape:export-filename="/home/sapista/build/SAPTouch/pySAPTouch/icons/save_icon.png"
   inkscape:export-xdpi="261.33298"
   inkscape:export-ydpi="261.33298"
   inkscape:version="1.0 (4035a4fb49, 2020-05-01)">
  <metadata
     id="metadata30">
    <rdf:RDF>
      <cc:Work
         rdf:about="">
        <dc:format>image/svg+xml</dc:format>
        <dc:type
           rdf:resource="http://purl.org/dc/dcmitype/StillImage" />
        <dc:title />
      </cc:Work>
    </rdf:RDF>
  </metadata>
  <defs
     id="defs28" />
  <sodipodi:namedview
     inkscape:document-rotation="0"
     pagecolor="#ffffff"
     bordercolor="#666666"
     borderopacity="1"
     objecttolerance="10"
     gridtolerance="10"
     guidetolerance="10"
     inkscape:pageopacity="0"
     inkscape:pageshadow="2"
     inkscape:window-width="1920"
     inkscape:window-height="1025"
     id="namedview26"
     showgrid="false"
     inkscape:pagecheckerboard="true"
     inkscape:zoom="34.958333"
     inkscape:cx="12"
     inkscape:cy="12"
     inkscape:window-x="1920"
     inkscape:window-y="0"
     inkscape:window-maximized="1"
     inkscape:current-layer="svg24" />
  <g
     inkscape:export-ydpi="170.66667"
     inkscape:export-xdpi="170.66667"
     transform="translate(0 -1028.4)"
     id="g22">
    <path
       d="m5 1031.4c-1.1046 0-2 0.9-2 2v14c0 1.1 0.8954 2 2 2h13 1c1.105 0 2-0.9 2-2v-13l-3-3h-13z"
       fill="#3498db"
       id="path2" />
    <path
       d="m7 1031.4v1 5c0 0.5 0.4477 1 1 1h8c0.552 0 1-0.5 1-1v-5-1h-10z"
       fill="#2980b9"
       id="path4" />
    <path
       d="m7 3v5c0 0.5523 0.4477 1 1 1h8c0.552 0 1-0.4477 1-1v-5h-10z"
       transform="translate(0 1028.4)"
       fill="#ecf0f1"
       id="path6" />
    <path
       d="m6 1040.4c-0.5523 0-1 0.4-1 1v3 2 3h4 6 4v-3-2-3c0-0.6-0.448-1-1-1h-4-4-4z"
       fill="#ecf0f1"
       id="path8" />
    <g
       fill="#bdc3c7"
       id="g16">
      <rect
         height="1"
         width="14"
         y="1048.4"
         x="5"
         id="rect10" />
      <rect
         height="1"
         width="10"
         y="1042.4"
         x="7"
         id="rect12" />
      <rect
         height="1"
         width="10"
         y="1044.4"
         x="7"
         id="rect14" />
    </g>
    <rect
       height="4"
       width="3"
       y="1032.4"
       x="13"
       fill="#3498db"
       id="rect18" />
    <rect
       height=".99998"
       width="3"
       y="1032.4"
       x="13"
       fill="#2980b9"
       id="rect20" />
  </g>
</svg>
